<svg width="107" height="75" viewBox="0 0 107 75" fill="none" xmlns="http://www.w3.org/2000/svg">
<path fill-rule="evenodd" clip-rule="evenodd" d="M57.0353 62.5625L57.949 11.1416L59.8342 11.1702L58.9205 62.5911L57.0353 62.5625Z" fill="#52EBCD"/>
<path d="M75.9092 70.4252L58.6499 11.3531L74.3726 11.2275L91.7289 70.2127L75.9092 70.4252Z" fill="#58ECD0"/>
<path fill-rule="evenodd" clip-rule="evenodd" d="M58.3405 11.1311L74.5508 11.0017L92.0383 70.4331L75.731 70.6521L58.3405 11.1311ZM58.9592 11.5751L76.0874 70.1983L91.4195 69.9924L74.1945 11.4535L58.9592 11.5751Z" fill="#52EBCD"/>
<path fill-rule="evenodd" clip-rule="evenodd" d="M22.9513 4.49103C11.4521 9.63207 3.29956 22.5062 3.29956 37.5748C3.29956 52.6434 11.4521 65.5175 22.9513 70.6585V53.0605C20.0331 49.4973 17.9119 44.3487 17.9119 37.5748C17.9119 30.8008 20.0331 25.6523 22.9513 22.0891V4.49103Z" fill="white"/>
<path fill-rule="evenodd" clip-rule="evenodd" d="M23.1869 4.13763V22.1663L23.1371 22.2272C20.2536 25.7481 18.1476 30.8471 18.1476 37.5748C18.1476 44.3026 20.2536 49.4015 23.1371 52.9224L23.1869 52.9833V71.012L22.8511 70.8619C11.2552 65.6776 3.06387 52.7147 3.06387 37.5748C3.06387 22.435 11.2552 9.47207 22.8511 4.28776L23.1869 4.13763ZM22.7156 4.84712C11.49 10.0441 3.53524 22.7251 3.53524 37.5748C3.53524 52.4245 11.49 65.1056 22.7156 70.3025V53.1375C19.7885 49.5343 17.6762 44.3565 17.6762 37.5748C17.6762 30.7931 19.7885 25.6153 22.7156 22.0121V4.84712Z" fill="white"/>
<path d="M42.8198 62.8728L29.2977 11.2524L44.9709 11.2521L58.6718 62.8469L42.8198 62.8728Z" fill="white"/>
<path fill-rule="evenodd" clip-rule="evenodd" d="M28.996 11.0278L45.1543 11.0275L58.9743 63.0709L42.6359 63.0976L28.996 11.0278ZM29.5993 11.4769L43.0037 62.6479L58.3693 62.6228L44.7876 11.4766L29.5993 11.4769Z" fill="white"/>
<path fill-rule="evenodd" clip-rule="evenodd" d="M29.0289 11.0145L21.1006 21.7386L22.6668 22.7403L30.5951 12.0162L29.0289 11.0145Z" fill="white"/>
<path d="M44.3084 7.18563C44.3084 6.1935 45.2022 5.38922 46.3047 5.38922H54.2498C55.3523 5.38922 56.2461 6.1935 56.2461 7.18563V7.18563C56.2461 8.17776 55.3523 8.98204 54.2498 8.98204H46.3047C45.2022 8.98204 44.3084 8.17776 44.3084 7.18563V7.18563Z" fill="#FED167"/>
<path d="M25.9251 7.18563C25.9251 6.1935 26.8189 5.38922 27.9215 5.38922H35.8665C36.969 5.38922 37.8628 6.1935 37.8628 7.18563V7.18563C37.8628 8.17776 36.969 8.98204 35.8665 8.98204H27.9215C26.8189 8.98204 25.9251 8.17776 25.9251 7.18563V7.18563Z" fill="#FED167"/>
<path d="M62.6916 7.18563C62.6916 6.1935 63.5854 5.38922 64.688 5.38922H72.633C73.7356 5.38922 74.6294 6.1935 74.6294 7.18563V7.18563C74.6294 8.17776 73.7356 8.98204 72.633 8.98204H64.688C63.5854 8.98204 62.6916 8.17776 62.6916 7.18563V7.18563Z" fill="#FED167"/>
<path d="M85.3172 7.41017C85.3172 8.27829 84.5786 8.98203 83.6674 8.98203C82.7563 8.98203 82.0176 8.27829 82.0176 7.41017C82.0176 6.54206 82.7563 5.83832 83.6674 5.83832C84.5786 5.83832 85.3172 6.54206 85.3172 7.41017Z" fill="#FED167"/>
<path fill-rule="evenodd" clip-rule="evenodd" d="M85.9759 11.4832C86.882 9.77586 87.3986 7.81268 87.3986 6.73651C87.3986 4.82953 85.7079 3.31666 83.6674 3.31666C81.6269 3.31666 79.9362 4.82953 79.9362 6.73651C79.9362 7.81268 80.4528 9.77586 81.3589 11.4832C81.8053 12.3243 82.297 13.0073 82.7762 13.4564C83.2728 13.922 83.5741 13.9737 83.6674 13.9737C83.7607 13.9737 84.062 13.922 84.5586 13.4564C85.0378 13.0073 85.5295 12.3243 85.9759 11.4832ZM83.6674 15.494C86.6612 15.494 89.0881 9.46486 89.0881 6.73651C89.0881 4.00815 86.6612 1.79639 83.6674 1.79639C80.6736 1.79639 78.2467 4.00815 78.2467 6.73651C78.2467 9.46486 80.6736 15.494 83.6674 15.494Z" fill="#52EBCD"/>
</svg>
